<?xml version="1.0" encoding="UTF-8"?>
<svg id="Layer_2" data-name="Layer 2" xmlns="http://www.w3.org/2000/svg" viewBox="0 0 86.67 86.67">
  <defs>
    <style>
      .cls-1 {
        fill: #231f20;
      }

      .cls-2 {
        fill: #fff;
      }
    </style>
  </defs>
  <g id="Layer_1-2" data-name="Layer 1">
    <circle class="cls-1" cx="43.34" cy="43.34" r="43.34"/>
    <path class="cls-2" d="M36.98,11.57c1.4.91,2.55,3.57,5.86,3.57,2.61,0,4.14-1.93,5.68-3.23,1.78-1.5,4.53-.54,5.07,1.73l3.63,15.45c-9.12,3.6-19.62,2.65-28.85.08.91-4.38,1.46-22.25,8.61-17.61Z"/>
    <path class="cls-2" d="M25.98,30.16c3.1-.16,11.88,3.71,16.89,3.75,8.46.07,16.61-6.33,23.83-.92,3.03,2.27,1.3,4.67-1.45,6.3-7.6,4.49-43.14,5.7-47.46-2.4-1.9-3.57,5.31-6.59,8.2-6.73Z"/>
    <path class="cls-2" d="M69.22,39.94l6.1,8.39-12.99,9.04,3.99,2.48c-11.41,1.2-20.98,8.3-28.99,16.01,1.61-5.36,5.63-11.99,9.47-16.02,3.23-3.39,13.49-8.82,14.61-10.39,2.23-3.16-.6-9.08,7.81-9.51Z"/>
    <path class="cls-2" d="M24.06,43.14c1.2,1.47,2.83,7.85,4.83,10.67,2.74,3.86,7.87,7.35,11,11.06l-1.69,3.92-18.87-8.93,4.97-3.49-12.96-8,6.64-7.42c1.08-.32,5.46,1.43,6.08,2.19Z"/>
    <path class="cls-2" d="M57.74,44.2c1.03-.12,1.75,1,1.23,1.9-2.15,3.75-3.6,6.9-9.14,6.87-2.37-.01-4.51-1.13-6.96-1.13-3.69.01-8.73,2.93-12.52-.48-1.77-1.59-1.37-3.61-2.33-5.19,0,0-.01-.02-.02-.03-.64-.97.04-2.22,1.19-2.04,9.45,1.47,19.05,1.19,28.55.11ZM30.53,47.84c1.18,3.94,6.98,4.8,10.26,2.02.54-.45.69-1.27.21-1.79-1.38-1.49-6.32-1.52-9.09-1.87-.91-.11-1.64.75-1.38,1.63ZM54.85,46.01l-8.57.78c-.59.05-1.1.51-1.15,1.11-.44,5.61,9.62,4.67,11.05-.25.25-.86-.44-1.72-1.33-1.63Z"/>
  </g>
</svg>